<mxfile host="app.diagrams.net" modified="2023-10-12T13:30:48.024Z" agent="Mozilla/5.0 (Windows NT 10.0; Win64; x64) AppleWebKit/537.36 (KHTML, like Gecko) Chrome/117.0.0.0 Safari/537.36" etag="Eh6EgnZeLv_ZDVgUUVuk" version="22.0.0" type="github">
  <diagram name="Pagina-1" id="9qTqyY3HptfSLWFPcCBy">
    <mxGraphModel dx="1434" dy="758" grid="1" gridSize="10" guides="1" tooltips="1" connect="1" arrows="1" fold="1" page="1" pageScale="1" pageWidth="827" pageHeight="1169" math="0" shadow="0">
      <root>
        <mxCell id="0" />
        <mxCell id="1" parent="0" />
        <mxCell id="dX74hsxgDh3a2y0aylE7-1" value="&lt;b&gt;INTERNET&lt;/b&gt;" style="ellipse;shape=cloud;whiteSpace=wrap;html=1;fillColor=#26B0FF;" vertex="1" parent="1">
          <mxGeometry x="40" y="70" width="160" height="110" as="geometry" />
        </mxCell>
        <mxCell id="dX74hsxgDh3a2y0aylE7-2" value="&lt;span style=&quot;font-size: 30px;&quot;&gt;DMZ&lt;/span&gt;" style="rounded=0;whiteSpace=wrap;html=1;fontStyle=1;align=left;verticalAlign=middle;spacingRight=0;labelPosition=center;verticalLabelPosition=middle;" vertex="1" parent="1">
          <mxGeometry x="110" y="430" width="690" height="440" as="geometry" />
        </mxCell>
        <mxCell id="dX74hsxgDh3a2y0aylE7-3" value="FIREWALL" style="rounded=0;whiteSpace=wrap;html=1;fontStyle=1" vertex="1" parent="1">
          <mxGeometry x="290" y="400" width="280" height="60" as="geometry" />
        </mxCell>
        <mxCell id="dX74hsxgDh3a2y0aylE7-4" value="WEB APPLICATION&lt;br&gt;FIREWALL" style="rounded=0;whiteSpace=wrap;html=1;fontStyle=1" vertex="1" parent="1">
          <mxGeometry x="110" y="240" width="140" height="60" as="geometry" />
        </mxCell>
        <mxCell id="dX74hsxgDh3a2y0aylE7-5" value="SERVER WEB" style="rounded=0;whiteSpace=wrap;html=1;direction=south;fontStyle=1" vertex="1" parent="1">
          <mxGeometry x="120" y="360" width="60" height="120" as="geometry" />
        </mxCell>
        <mxCell id="dX74hsxgDh3a2y0aylE7-6" value="&lt;b&gt;SERVER EMAIL&lt;/b&gt;" style="rounded=0;whiteSpace=wrap;html=1;direction=south;" vertex="1" parent="1">
          <mxGeometry x="210" y="360" width="60" height="120" as="geometry" />
        </mxCell>
        <mxCell id="dX74hsxgDh3a2y0aylE7-7" value="SWITCH" style="rounded=0;whiteSpace=wrap;html=1;fontStyle=1" vertex="1" parent="1">
          <mxGeometry x="190" y="585" width="120" height="40" as="geometry" />
        </mxCell>
        <mxCell id="dX74hsxgDh3a2y0aylE7-8" value="IPS" style="rounded=0;whiteSpace=wrap;html=1;direction=south;fontStyle=1" vertex="1" parent="1">
          <mxGeometry x="330" y="545" width="20" height="120" as="geometry" />
        </mxCell>
        <mxCell id="dX74hsxgDh3a2y0aylE7-9" value="ROUTER" style="ellipse;whiteSpace=wrap;html=1;fontStyle=1" vertex="1" parent="1">
          <mxGeometry x="370" y="565" width="120" height="80" as="geometry" />
        </mxCell>
        <mxCell id="dX74hsxgDh3a2y0aylE7-10" value="NAS (Network Attached Storage)" style="rounded=0;whiteSpace=wrap;html=1;direction=south;fontStyle=1" vertex="1" parent="1">
          <mxGeometry x="690" y="625" width="70" height="170" as="geometry" />
        </mxCell>
        <mxCell id="dX74hsxgDh3a2y0aylE7-11" value="SERVER DNS" style="rounded=0;whiteSpace=wrap;html=1;direction=south;fontStyle=1" vertex="1" parent="1">
          <mxGeometry x="690" y="460" width="70" height="150" as="geometry" />
        </mxCell>
        <mxCell id="dX74hsxgDh3a2y0aylE7-13" value="SWITCH" style="rounded=0;whiteSpace=wrap;html=1;fontStyle=1" vertex="1" parent="1">
          <mxGeometry x="550" y="585" width="120" height="40" as="geometry" />
        </mxCell>
        <mxCell id="dX74hsxgDh3a2y0aylE7-15" value="IDS" style="rounded=0;whiteSpace=wrap;html=1;direction=south;fontStyle=1" vertex="1" parent="1">
          <mxGeometry x="510" y="545" width="20" height="120" as="geometry" />
        </mxCell>
        <mxCell id="dX74hsxgDh3a2y0aylE7-16" value="SWITCH" style="rounded=0;whiteSpace=wrap;html=1;fontStyle=1" vertex="1" parent="1">
          <mxGeometry x="410" y="700" width="120" height="50" as="geometry" />
        </mxCell>
        <mxCell id="dX74hsxgDh3a2y0aylE7-18" value="" style="endArrow=none;html=1;rounded=0;exitX=0.25;exitY=0;exitDx=0;exitDy=0;" edge="1" parent="1" source="dX74hsxgDh3a2y0aylE7-22">
          <mxGeometry width="50" height="50" relative="1" as="geometry">
            <mxPoint x="370" y="790" as="sourcePoint" />
            <mxPoint x="410" y="750" as="targetPoint" />
          </mxGeometry>
        </mxCell>
        <mxCell id="dX74hsxgDh3a2y0aylE7-19" value="" style="endArrow=none;html=1;rounded=0;" edge="1" parent="1">
          <mxGeometry width="50" height="50" relative="1" as="geometry">
            <mxPoint x="420" y="800" as="sourcePoint" />
            <mxPoint x="440" y="750" as="targetPoint" />
          </mxGeometry>
        </mxCell>
        <mxCell id="dX74hsxgDh3a2y0aylE7-20" value="" style="endArrow=none;html=1;rounded=0;" edge="1" parent="1">
          <mxGeometry width="50" height="50" relative="1" as="geometry">
            <mxPoint x="480" y="800" as="sourcePoint" />
            <mxPoint x="490" y="750" as="targetPoint" />
          </mxGeometry>
        </mxCell>
        <mxCell id="dX74hsxgDh3a2y0aylE7-21" value="" style="endArrow=none;html=1;rounded=0;" edge="1" parent="1">
          <mxGeometry width="50" height="50" relative="1" as="geometry">
            <mxPoint x="550" y="800" as="sourcePoint" />
            <mxPoint x="530" y="750" as="targetPoint" />
          </mxGeometry>
        </mxCell>
        <mxCell id="dX74hsxgDh3a2y0aylE7-22" value="PC1" style="rounded=1;whiteSpace=wrap;html=1;fontStyle=1" vertex="1" parent="1">
          <mxGeometry x="350" y="795" width="40" height="40" as="geometry" />
        </mxCell>
        <mxCell id="dX74hsxgDh3a2y0aylE7-23" value="PC2" style="rounded=1;whiteSpace=wrap;html=1;fontStyle=1" vertex="1" parent="1">
          <mxGeometry x="400" y="795" width="40" height="40" as="geometry" />
        </mxCell>
        <mxCell id="dX74hsxgDh3a2y0aylE7-24" value="PC3" style="rounded=1;whiteSpace=wrap;html=1;fontStyle=1" vertex="1" parent="1">
          <mxGeometry x="460" y="795" width="40" height="40" as="geometry" />
        </mxCell>
        <mxCell id="dX74hsxgDh3a2y0aylE7-25" value="PC4" style="rounded=1;whiteSpace=wrap;html=1;fontStyle=1" vertex="1" parent="1">
          <mxGeometry x="530" y="795" width="40" height="40" as="geometry" />
        </mxCell>
        <mxCell id="dX74hsxgDh3a2y0aylE7-26" value="" style="endArrow=none;dashed=1;html=1;dashPattern=1 3;strokeWidth=2;rounded=0;exitX=0.261;exitY=1.011;exitDx=0;exitDy=0;exitPerimeter=0;" edge="1" parent="1" source="dX74hsxgDh3a2y0aylE7-2">
          <mxGeometry width="50" height="50" relative="1" as="geometry">
            <mxPoint x="240" y="675" as="sourcePoint" />
            <mxPoint x="290" y="625" as="targetPoint" />
          </mxGeometry>
        </mxCell>
        <mxCell id="dX74hsxgDh3a2y0aylE7-27" value="" style="endArrow=none;dashed=1;html=1;dashPattern=1 3;strokeWidth=2;rounded=0;exitX=0.817;exitY=0.075;exitDx=0;exitDy=0;exitPerimeter=0;" edge="1" parent="1" source="dX74hsxgDh3a2y0aylE7-7">
          <mxGeometry width="50" height="50" relative="1" as="geometry">
            <mxPoint x="240" y="480" as="sourcePoint" />
            <mxPoint x="290" y="430" as="targetPoint" />
          </mxGeometry>
        </mxCell>
      </root>
    </mxGraphModel>
  </diagram>
</mxfile>
